<svg id="Layer_1" data-name="Layer 1" xmlns="http://www.w3.org/2000/svg" viewBox="0 0 44.81 82.31"><defs><style>.cls-1{fill:#fff;}</style></defs><title>Designklein-16175387</title><path class="cls-1" d="M72.86,438.91c-0.41-.12-0.82-0.26-1.25-0.34-5.73-1.19-9.7-4.42-10.94-10.22a25.52,25.52,0,0,1-.4-8.62c0.78-5.74,2-11.43,3.19-17.12,0.45-2.23,1.15-4.41,1.84-7,2.91,7,3.33,14.43,7.21,21.13l-6.17-1.57a83.68,83.68,0,0,0-.7,9.18c0.15,5.49,3.82,8.85,9.34,9,5.89,0.13,11.2-1.94,16.25-4.64A39.6,39.6,0,0,0,97.74,424,4,4,0,0,0,98.91,419c-1.5-3.34-2.9-6.74-4.52-10-3.54-7.17-7.31-14.22-10.75-21.43a32.73,32.73,0,0,1-3.49-13.92,2.6,2.6,0,0,0-1-2.21c-3.82-3.26-4.81-12.47,1.3-14.78h2.3c5.05,2.86,7.06,9.52,4,13.86a5.53,5.53,0,0,0-1,4,25.56,25.56,0,0,0,.55,3.73c1.61,6.78,5,12.8,8.11,19,3.24,6.45,6.44,12.92,9.53,19.44,2.08,4.38.78,8.19-2.43,11.54a32.12,32.12,0,0,1-9.59,6.52,53.52,53.52,0,0,1-13.72,4.31H72.86Zm9.81-70.8a5.22,5.22,0,0,0-1.21-6.89C80.05,363.66,80.66,366.87,82.67,368.11Z" transform="translate(-60.07 -356.6)"/></svg>