<?xml version="1.0" encoding="utf-8"?>
<!-- Generator: Adobe Illustrator 19.2.1, SVG Export Plug-In . SVG Version: 6.00 Build 0)  -->
<svg version="1.1" id="Layer_1" xmlns="http://www.w3.org/2000/svg" xmlns:xlink="http://www.w3.org/1999/xlink" x="0px" y="0px"
	 viewBox="0 0 48 48" style="enable-background:new 0 0 48 48;" xml:space="preserve">
<style type="text/css">
	.st0{fill:#FFFFFF;}
</style>
<title>marketing/webhooks-48</title>
<desc>Created with Sketch.</desc>
<g id="Marketing">
	<g id="Labels" transform="translate(-2.000000, -1418.000000)">
	</g>
	<g id="webhooks-48">
		<path id="Rectangle" class="st0" d="M13.9,27.7c-0.3,0-0.5-0.1-0.8-0.1c-2.4,0-4.4,2-4.4,4.4s2,4.4,4.4,4.4s4.4-2,4.4-4.4
			c0-0.8-0.2-1.6-0.6-2.3l3.8-7.6c0.4-0.8,0.2-1.7-0.5-2.2c-1.7-1.3-2.7-3.4-2.7-5.6c0-3.9,3.1-7,7-7s7,3.1,7,7
			c0,0.7-0.1,1.3-0.3,1.9c-0.3,0.9,0.3,1.9,1.2,2.2s1.9-0.3,2.2-1.2c0.3-0.9,0.4-1.9,0.4-2.9c0-5.8-4.7-10.6-10.5-10.6
			S13.9,8.6,13.9,14.4c0,2.8,1.1,5.4,3,7.4L13.9,27.7z M28.2,16.6c0.4-0.7,0.7-1.5,0.7-2.3c0-2.4-2-4.4-4.4-4.4
			c-2.4,0-4.4,2-4.4,4.4c0,2.4,2,4.4,4.4,4.4c0.3,0,0.5,0,0.8-0.1l3.6,6.7c0.5,0.9,1.7,1.2,2.6,0.6c1.2-0.8,2.6-1.3,4-1.3
			c3.9,0,7.1,3.2,7.1,7.2S39.4,39,35.5,39c-1.6,0-3.1-0.5-4.4-1.5c-0.8-0.6-1.9-0.5-2.5,0.3c-0.6,0.8-0.5,1.9,0.3,2.5
			c1.9,1.5,4.2,2.3,6.6,2.3c5.9,0,10.6-4.8,10.6-10.7s-4.8-10.7-10.6-10.7c-1.5,0-3,0.3-4.3,0.9L28.2,16.6z M31.7,34.2
			c0.8,1.3,2.1,2.1,3.7,2.1c2.4,0,4.3-2,4.3-4.4c0-2.4-1.9-4.4-4.3-4.4c-1.9,0-3.6,1.3-4.1,3.1h-8.6c-1,0-1.7,0.7-1.8,1.7
			c-0.2,4.2-3.6,7.5-7.8,7.5c-4.3,0-7.8-3.5-7.8-7.9c0-3.5,2.3-6.6,5.7-7.6c0.9-0.3,1.5-1.2,1.2-2.2c-0.3-0.9-1.2-1.5-2.2-1.2
			c-4.8,1.4-8.2,5.8-8.2,11c0,6.3,5.1,11.4,11.3,11.4c5.5,0,10.1-3.9,11.1-9.2H31.7z"/>
	</g>
</g>
</svg>
