<svg id="Layer_1" data-name="Layer 1" xmlns="http://www.w3.org/2000/svg" xmlns:xlink="http://www.w3.org/1999/xlink" viewBox="0 0 573.34 258.74"><defs><style>.cls-1{opacity:0.2;}.cls-2{fill:url(#linear-gradient);}.cls-3{fill:url(#linear-gradient-2);}.cls-4{fill:url(#linear-gradient-3);}.cls-5{fill:url(#linear-gradient-4);}.cls-6{fill:url(#linear-gradient-5);}.cls-7{fill:url(#linear-gradient-6);}.cls-8{fill:url(#linear-gradient-7);}.cls-9{fill:url(#linear-gradient-8);}.cls-10{fill:url(#linear-gradient-9);}.cls-11{fill:url(#linear-gradient-10);}.cls-12{fill:url(#linear-gradient-11);}.cls-13{fill:url(#linear-gradient-12);}.cls-14{fill:url(#linear-gradient-13);}.cls-15{fill:url(#linear-gradient-14);}.cls-16{fill:url(#linear-gradient-15);}.cls-17{fill:url(#linear-gradient-16);}.cls-18{fill:url(#linear-gradient-17);}.cls-19{fill:url(#linear-gradient-18);}.cls-20{fill:url(#linear-gradient-19);}.cls-21{fill:url(#linear-gradient-20);}.cls-22{fill:url(#linear-gradient-21);}.cls-23{fill:url(#linear-gradient-22);}.cls-24{fill:url(#linear-gradient-23);}.cls-25{fill:url(#linear-gradient-25);}.cls-26{fill:url(#linear-gradient-27);}.cls-27{fill:url(#linear-gradient-28);}.cls-28{fill:url(#linear-gradient-29);}.cls-29{fill:url(#linear-gradient-30);}.cls-30{fill:url(#linear-gradient-31);}.cls-31{fill:url(#linear-gradient-32);}.cls-32{fill:url(#linear-gradient-33);}.cls-33{fill:url(#linear-gradient-34);}.cls-34{fill:url(#linear-gradient-35);}.cls-35{fill:url(#linear-gradient-36);}.cls-36{fill:url(#linear-gradient-37);}.cls-37{fill:url(#linear-gradient-38);}.cls-38{fill:#906eb0;fill-rule:evenodd;}</style><linearGradient id="linear-gradient" x1="254.26" y1="427.16" x2="254.26" y2="427.16" gradientUnits="userSpaceOnUse"><stop offset="0" stop-color="#906eb0"/><stop offset="0.13" stop-color="#7c7db8"/><stop offset="0.34" stop-color="#6190c1"/><stop offset="0.55" stop-color="#4e9ec8"/><stop offset="0.77" stop-color="#43a6cd"/><stop offset="1" stop-color="#3fa9ce"/></linearGradient><linearGradient id="linear-gradient-2" x1="-6.1" y1="270.6" x2="598.22" y2="529.24" xlink:href="#linear-gradient"/><linearGradient id="linear-gradient-3" x1="9.72" y1="233.63" x2="614.04" y2="492.28" xlink:href="#linear-gradient"/><linearGradient id="linear-gradient-4" x1="4.55" y1="245.72" x2="608.87" y2="504.36" xlink:href="#linear-gradient"/><linearGradient id="linear-gradient-5" x1="19.12" y1="211.67" x2="623.44" y2="470.31" xlink:href="#linear-gradient"/><linearGradient id="linear-gradient-6" x1="95.91" y1="279.35" x2="95.91" y2="279.35" xlink:href="#linear-gradient"/><linearGradient id="linear-gradient-7" x1="25.39" y1="197.03" x2="629.71" y2="455.68" xlink:href="#linear-gradient"/><linearGradient id="linear-gradient-8" x1="35.68" y1="172.99" x2="640" y2="431.63" xlink:href="#linear-gradient"/><linearGradient id="linear-gradient-9" x1="17.63" y1="215.17" x2="621.95" y2="473.81" xlink:href="#linear-gradient"/><linearGradient id="linear-gradient-10" x1="85.22" y1="57.24" x2="689.54" y2="315.88" xlink:href="#linear-gradient"/><linearGradient id="linear-gradient-11" x1="-21.51" y1="306.61" x2="582.81" y2="565.25" xlink:href="#linear-gradient"/><linearGradient id="linear-gradient-12" x1="-31.03" y1="328.86" x2="573.29" y2="587.5" xlink:href="#linear-gradient"/><linearGradient id="linear-gradient-13" x1="24.88" y1="198.23" x2="629.2" y2="456.87" xlink:href="#linear-gradient"/><linearGradient id="linear-gradient-14" x1="24.6" y1="198.86" x2="628.93" y2="457.51" xlink:href="#linear-gradient"/><linearGradient id="linear-gradient-15" x1="18.87" y1="212.25" x2="623.19" y2="470.9" xlink:href="#linear-gradient"/><linearGradient id="linear-gradient-16" x1="15.57" y1="219.96" x2="619.9" y2="478.61" xlink:href="#linear-gradient"/><linearGradient id="linear-gradient-17" x1="8.48" y1="236.53" x2="612.8" y2="495.18" xlink:href="#linear-gradient"/><linearGradient id="linear-gradient-18" x1="14.24" y1="223.08" x2="618.56" y2="481.72" xlink:href="#linear-gradient"/><linearGradient id="linear-gradient-19" x1="-14.58" y1="290.42" x2="589.74" y2="549.07" xlink:href="#linear-gradient"/><linearGradient id="linear-gradient-20" x1="30.59" y1="184.89" x2="634.91" y2="443.53" xlink:href="#linear-gradient"/><linearGradient id="linear-gradient-21" x1="67.85" y1="97.83" x2="672.17" y2="356.47" xlink:href="#linear-gradient"/><linearGradient id="linear-gradient-22" x1="84.54" y1="58.82" x2="688.86" y2="317.46" xlink:href="#linear-gradient"/><linearGradient id="linear-gradient-23" x1="365.05" y1="229.44" x2="365.05" y2="229.44" xlink:href="#linear-gradient"/><linearGradient id="linear-gradient-25" x1="587.18" y1="386.78" x2="587.18" y2="386.78" xlink:href="#linear-gradient"/><linearGradient id="linear-gradient-27" x1="-33.53" y1="334.7" x2="570.79" y2="593.34" xlink:href="#linear-gradient"/><linearGradient id="linear-gradient-28" x1="144.46" y1="387.75" x2="144.46" y2="387.75" xlink:href="#linear-gradient"/><linearGradient id="linear-gradient-29" x1="-42.78" y1="356.31" x2="561.54" y2="614.96" xlink:href="#linear-gradient"/><linearGradient id="linear-gradient-30" x1="-41.26" y1="352.75" x2="563.06" y2="611.4" xlink:href="#linear-gradient"/><linearGradient id="linear-gradient-31" x1="-31.98" y1="331.09" x2="572.34" y2="589.73" xlink:href="#linear-gradient"/><linearGradient id="linear-gradient-32" x1="79.23" y1="71.22" x2="683.56" y2="329.86" xlink:href="#linear-gradient"/><linearGradient id="linear-gradient-33" x1="-31.93" y1="330.97" x2="572.39" y2="589.61" xlink:href="#linear-gradient"/><linearGradient id="linear-gradient-34" x1="-19.29" y1="301.42" x2="585.03" y2="560.06" xlink:href="#linear-gradient"/><linearGradient id="linear-gradient-35" x1="51.79" y1="135.34" x2="656.11" y2="393.98" xlink:href="#linear-gradient"/><linearGradient id="linear-gradient-36" x1="81.04" y1="67.01" x2="685.36" y2="325.65" xlink:href="#linear-gradient"/><linearGradient id="linear-gradient-37" x1="39.73" y1="163.52" x2="644.05" y2="422.17" xlink:href="#linear-gradient"/><linearGradient id="linear-gradient-38" x1="-3.59" y1="264.75" x2="600.73" y2="523.39" xlink:href="#linear-gradient"/></defs><title>Untitled-1</title><g class="cls-1"><path class="cls-2" d="M254.26,427.16" transform="translate(-25.34 -188.3)"/><path class="cls-3" d="M312.74,445.75H279a1.35,1.35,0,0,1,0-2.71h33.79a105.94,105.94,0,0,0,89.93-49.54A1.35,1.35,0,0,1,405,395,108.63,108.63,0,0,1,312.74,445.75Z" transform="translate(-25.34 -188.3)"/><path class="cls-4" d="M197.09,283.73l-19.25-11.11a10.43,10.43,0,0,0-10.4,0l-19.25,11.11a10.43,10.43,0,0,0-5.2,9V315a10.43,10.43,0,0,0,5.2,9l13.17,7.6a1.25,1.25,0,0,0,1.71-.46,1.25,1.25,0,0,0-.46-1.71l-13.17-7.6a7.92,7.92,0,0,1-3.95-6.84V292.73a7.92,7.92,0,0,1,3.95-6.84l19.25-11.11a7.92,7.92,0,0,1,7.9,0l19.25,11.11a7.92,7.92,0,0,1,3.95,6.84V315a7.92,7.92,0,0,1-3.95,6.84l-13.19,7.61a1.25,1.25,0,0,0-.46,1.71,1.25,1.25,0,0,0,1.71.46L197.09,324a10.43,10.43,0,0,0,5.2-9V292.73A10.43,10.43,0,0,0,197.09,283.73Z" transform="translate(-25.34 -188.3)"/><path class="cls-5" d="M186.11,309.85a1.25,1.25,0,0,0,0-1.77l-12.59-12.59a1.25,1.25,0,0,0-1.77,0l-12.59,12.59a1.25,1.25,0,0,0,0,1.77,1.24,1.24,0,0,0,.88.37h0a1.24,1.24,0,0,0,.89-0.37l10.45-10.45v39.54a1.25,1.25,0,0,0,2.5,0V299.4l10.45,10.45A1.28,1.28,0,0,0,186.11,309.85Z" transform="translate(-25.34 -188.3)"/><path class="cls-6" d="M312.09,426.67a89.61,89.61,0,1,1,89.61-89.61A89.71,89.71,0,0,1,312.09,426.67Zm0-176.52A86.91,86.91,0,1,0,399,337.06,87,87,0,0,0,312.09,250.15Z" transform="translate(-25.34 -188.3)"/><path class="cls-7" d="M95.91,279.35" transform="translate(-25.34 -188.3)"/><path class="cls-8" d="M44.81,270.31h0a1.35,1.35,0,0,1-1.31-1.39,26.08,26.08,0,0,1,33.71-24.15,26.09,26.09,0,0,1,34-23.64,38.43,38.43,0,0,1,76.35,2.76,17.83,17.83,0,0,1,24.05,20.23,1.35,1.35,0,1,1-2.65-.55,15.12,15.12,0,0,0-14.35-18.23,15.1,15.1,0,0,0-7.66,1.82,1.35,1.35,0,0,1-2-1.16,35.73,35.73,0,0,0-71.26-2.9,1.35,1.35,0,0,1-1.84,1.12,23.37,23.37,0,0,0-31.91,21.05c0,0.45,0,.9,0,1.35a1.35,1.35,0,0,1-1.84,1.3A23.38,23.38,0,0,0,46.17,269,1.35,1.35,0,0,1,44.81,270.31Z" transform="translate(-25.34 -188.3)"/><path class="cls-9" d="M158.74,259.59A27.14,27.14,0,0,1,145.17,256,19.52,19.52,0,0,1,138,229.31a14.07,14.07,0,0,1,19.21-5.19,10.27,10.27,0,0,1,3.78,14,1.35,1.35,0,1,1-2.35-1.35,7.56,7.56,0,0,0-2.78-10.31,11.37,11.37,0,0,0-15.52,4.19,16.82,16.82,0,0,0,6.2,23,24.63,24.63,0,0,0,33.6-9.07,35.64,35.64,0,0,0,3.61-27.08,35.2,35.2,0,0,0-16.6-21.62,1.35,1.35,0,0,1,1.35-2.35,37.88,37.88,0,0,1,17.87,23.27,38.33,38.33,0,0,1-3.88,29.12A27.33,27.33,0,0,1,158.74,259.59Z" transform="translate(-25.34 -188.3)"/><path class="cls-10" d="M97.27,268.92a18.65,18.65,0,0,1-15.21-7.81,26.08,26.08,0,0,1,6.07-36.37,1.35,1.35,0,0,1,1.57,2.2,23.37,23.37,0,0,0-5.44,32.6,16,16,0,0,0,22.25,3.71,10.77,10.77,0,0,0,2.51-15,7.14,7.14,0,0,0-9.94-1.66A4.59,4.59,0,0,0,98,253a1.35,1.35,0,0,1-2.2,1.57,7.3,7.3,0,0,1,1.69-10.17,9.85,9.85,0,0,1,13.72,2.29,13.48,13.48,0,0,1-3.14,18.79A18.55,18.55,0,0,1,97.27,268.92Z" transform="translate(-25.34 -188.3)"/><path class="cls-11" d="M488.87,235.35a1.35,1.35,0,0,1-1.32-1.67l1.74-7.25a1.35,1.35,0,0,1,2.63.63l-1.29,5.38,6.11-.67a1.35,1.35,0,0,1,.3,2.69l-8,.89h-0.15Z" transform="translate(-25.34 -188.3)"/><path class="cls-12" d="M180.19,398l-0.27,0-9.19-1.87a1.35,1.35,0,0,1,.54-2.65l7.31,1.49-1.18-8.14a1.35,1.35,0,1,1,2.68-.39l1.46,10A1.35,1.35,0,0,1,180.19,398Z" transform="translate(-25.34 -188.3)"/><path class="cls-13" d="M224.3,440.14a1.35,1.35,0,0,1-.66-0.17l-10-5.6a1.35,1.35,0,0,1,1.32-2.36l10,5.6A1.35,1.35,0,0,1,224.3,440.14Z" transform="translate(-25.34 -188.3)"/><path class="cls-14" d="M416.41,447a1.35,1.35,0,0,1-1.35-1.35V369.6a9.18,9.18,0,0,1,9.13-9.17c27.76-.11,143.14,0,144.3,0h24.42a5.78,5.78,0,0,1,5.77,5.77v13.55a1.35,1.35,0,1,1-2.71,0V366.26a3.07,3.07,0,0,0-3.07-3.07H568.48c-1.16,0-116.53-.16-144.29,0a6.47,6.47,0,0,0-6.43,6.46v76.09A1.35,1.35,0,0,1,416.41,447Z" transform="translate(-25.34 -188.3)"/><path class="cls-15" d="M540.15,402.65H455.06a1.35,1.35,0,1,1,0-2.71h85.09A1.35,1.35,0,1,1,540.15,402.65Z" transform="translate(-25.34 -188.3)"/><path class="cls-16" d="M526.29,415.56H455.2a1.35,1.35,0,0,1,0-2.71h71.09A1.35,1.35,0,1,1,526.29,415.56Z" transform="translate(-25.34 -188.3)"/><path class="cls-17" d="M547.29,429.18H455.2a1.35,1.35,0,0,1,0-2.71h92.09A1.35,1.35,0,1,1,547.29,429.18Z" transform="translate(-25.34 -188.3)"/><path class="cls-18" d="M519.29,442.79H455.2a1.35,1.35,0,0,1,0-2.71h64.09A1.35,1.35,0,1,1,519.29,442.79Z" transform="translate(-25.34 -188.3)"/><path class="cls-19" d="M439.41,411.44l-0.16,3.17a1.44,1.44,0,0,1-.27.9,1,1,0,0,1-.79.28,0.79,0.79,0,0,1-.66-0.26,1.35,1.35,0,0,1-.21-0.83v-0.25l0.16-3.09a4.66,4.66,0,0,1-1.08-.32,6.18,6.18,0,0,1-1.05-.59,1.42,1.42,0,0,1-.42.46,1,1,0,0,1-.55.15,1.08,1.08,0,0,1-.86-0.36,1.46,1.46,0,0,1-.31-1v-1.9a1.11,1.11,0,0,1,.31-0.81,1.09,1.09,0,0,1,.81-0.31,1.26,1.26,0,0,1,1.15,1.07,2.45,2.45,0,0,0,.16.45,2.6,2.6,0,0,0,1.35.92,5.9,5.9,0,0,0,2.18.42,3.32,3.32,0,0,0,2.07-.6,1.88,1.88,0,0,0,.79-1.56,1.84,1.84,0,0,0-.56-1.39,7.59,7.59,0,0,0-2.49-1.21l-2.39-.81a4.55,4.55,0,0,1-2.2-1.57,4,4,0,0,1-.82-2.44,3.61,3.61,0,0,1,1.22-2.84,5.63,5.63,0,0,1,3.4-1.24l0.05-1a1.35,1.35,0,0,1,.3-0.84,0.92,0.92,0,0,1,.71-0.28,1,1,0,0,1,.71.25,1,1,0,0,1,.25.73v0.16L440.12,396q0.51,0.14,1,.31a9.1,9.1,0,0,1,.94.39,1.54,1.54,0,0,1,.41-0.36,0.9,0.9,0,0,1,.45-0.12,0.81,0.81,0,0,1,.67.25,1.4,1.4,0,0,1,.21.87V399a1.1,1.1,0,0,1-.25.77,0.92,0.92,0,0,1-.71.27,1.19,1.19,0,0,1-1.07-.85q-0.08-.22-0.14-0.33a1.9,1.9,0,0,0-1-.86,4.4,4.4,0,0,0-1.74-.31,3.77,3.77,0,0,0-2.21.59,1.82,1.82,0,0,0-.83,1.56,1.93,1.93,0,0,0,.52,1.35,3.49,3.49,0,0,0,1.53.9l2.62,0.87a6.56,6.56,0,0,1,2.93,1.69,3.78,3.78,0,0,1,.94,2.62,3.66,3.66,0,0,1-1.33,2.93A6,6,0,0,1,439.41,411.44Z" transform="translate(-25.34 -188.3)"/><path class="cls-20" d="M95.89,349.93H55c-5.59,0-10.14-4.22-10.14-9.41v-1.24c0-5.19,4.55-9.41,10.14-9.41h54.44c4.1,0,7.44-3,7.44-6.71s-3.34-6.71-7.44-6.71H36a1.35,1.35,0,1,1,0-2.71h73.38c5.59,0,10.14,4.22,10.14,9.41s-4.55,9.41-10.14,9.41H55c-4.1,0-7.44,3-7.44,6.71v1.24c0,3.7,3.34,6.71,7.44,6.71H95.89A1.35,1.35,0,0,1,95.89,349.93Z" transform="translate(-25.34 -188.3)"/><path class="cls-21" d="M554.52,381.1H417.23a1.35,1.35,0,1,1,0-2.71H554.52A1.35,1.35,0,1,1,554.52,381.1Z" transform="translate(-25.34 -188.3)"/><path class="cls-22" d="M518,294.67H446.63a8.12,8.12,0,0,1-8.11-8.11v-0.88a8.12,8.12,0,0,1,8.11-8.11h89.55a5.42,5.42,0,0,0,5.41-5.41v-0.49a5.42,5.42,0,0,0-5.41-5.41H418.71a8.12,8.12,0,0,1-8.11-8.11v-0.65a8.12,8.12,0,0,1,8.11-8.11h71.48a1.35,1.35,0,1,1,0,2.71H418.71a5.42,5.42,0,0,0-5.41,5.41v0.65a5.42,5.42,0,0,0,5.41,5.41H536.18a8.12,8.12,0,0,1,8.11,8.11v0.49a8.12,8.12,0,0,1-8.11,8.11H446.63a5.42,5.42,0,0,0-5.41,5.41v0.88a5.42,5.42,0,0,0,5.41,5.41H518A1.35,1.35,0,0,1,518,294.67Z" transform="translate(-25.34 -188.3)"/><path class="cls-23" d="M559.21,252.08H506.63a1.35,1.35,0,1,1,0-2.71h52.58A1.35,1.35,0,1,1,559.21,252.08Z" transform="translate(-25.34 -188.3)"/><path class="cls-24" d="M365,229.44" transform="translate(-25.34 -188.3)"/><path class="cls-24" d="M365,229.44" transform="translate(-25.34 -188.3)"/><path class="cls-25" d="M587.18,386.78" transform="translate(-25.34 -188.3)"/><path class="cls-25" d="M587.18,386.78" transform="translate(-25.34 -188.3)"/><path class="cls-26" d="M160.47,440.15a1.35,1.35,0,0,1-.66-2.53l42.82-23.82a1.35,1.35,0,1,1,1.32,2.36L161.13,440A1.35,1.35,0,0,1,160.47,440.15Z" transform="translate(-25.34 -188.3)"/><path class="cls-27" d="M144.46,387.75" transform="translate(-25.34 -188.3)"/><path class="cls-28" d="M53.36,437.24a1.35,1.35,0,0,1-.73-2.49l39.25-25.05a7.91,7.91,0,0,1,9.29-1.21l5.94,3.3a5.2,5.2,0,0,0,5.13-.07l5-3a7.91,7.91,0,0,1,7.89,0l5.37,3.1a5.17,5.17,0,0,0,5.29-.07l4.93-3a7.85,7.85,0,0,1,8.24,0l4.64,2.85a5.17,5.17,0,0,0,5.31.06l8.23-4.8a1.35,1.35,0,0,1,1.36,2.34L160.3,414a7.87,7.87,0,0,1-8.09-.09l-4.64-2.85a5.16,5.16,0,0,0-5.41,0l-4.94,3a7.88,7.88,0,0,1-8.06.11l-5.37-3.1a5.19,5.19,0,0,0-5.18,0l-5,2.95a7.91,7.91,0,0,1-7.81.11l-5.95-3.31a5.2,5.2,0,0,0-6.18.86,1.35,1.35,0,0,1-.23.18L54.09,437A1.34,1.34,0,0,1,53.36,437.24Z" transform="translate(-25.34 -188.3)"/><path class="cls-29" d="M109.76,428.86a7.88,7.88,0,0,1-3.91-1L97.6,423.1a1.35,1.35,0,1,1,1.34-2.35l8.25,4.71a5.16,5.16,0,0,0,5.34-.12l4.47-2.83a7.89,7.89,0,0,1,8.07-.11l5,2.91a5.2,5.2,0,0,0,5.11,0l8.8-4.9a1.35,1.35,0,1,1,1.32,2.36l-8.8,4.9a7.92,7.92,0,0,1-7.78-.06l-5-2.91a5.18,5.18,0,0,0-5.29.06L114,427.64A7.88,7.88,0,0,1,109.76,428.86Z" transform="translate(-25.34 -188.3)"/><path class="cls-30" d="M255.5,432.83a1.35,1.35,0,0,1-.68-0.18l-34.46-19.9a10.35,10.35,0,0,0-10.18-.07l-12.25,6.83a13.08,13.08,0,0,1-12.82-.08l-64.9-37.3a22,22,0,0,0-26.48,3.51,1.3,1.3,0,0,1-.2.16L68.45,402.75a1.35,1.35,0,1,1-1.51-2.24l25-16.88a24.72,24.72,0,0,1,29.65-3.85l64.9,37.3a10.36,10.36,0,0,0,10.16.07l12.25-6.83a13.08,13.08,0,0,1,12.85.09l34.46,19.9A1.35,1.35,0,0,1,255.5,432.83Z" transform="translate(-25.34 -188.3)"/><path class="cls-31" d="M464.54,236.29h-42a1.35,1.35,0,0,1,0-2.71h42a6.11,6.11,0,0,0,0-12.22h-64.4a1.35,1.35,0,1,1,0-2.71h64.4A8.82,8.82,0,0,1,464.54,236.29Z" transform="translate(-25.34 -188.3)"/><path class="cls-32" d="M72.35,367.18H26.69a1.35,1.35,0,1,1,0-2.71H72.35A1.35,1.35,0,1,1,72.35,367.18Z" transform="translate(-25.34 -188.3)"/><path class="cls-33" d="M140.37,393.63a1.35,1.35,0,0,1-.7-2.51l43.62-26.38a1.35,1.35,0,0,1,1.4,2.32l-43.62,26.38A1.35,1.35,0,0,1,140.37,393.63Z" transform="translate(-25.34 -188.3)"/><path class="cls-34" d="M500.24,332H474.88a1.35,1.35,0,0,1,0-2.71h25.36a7.1,7.1,0,1,0,0-14.2H452.56a1.35,1.35,0,1,1,0-2.71h47.68A9.81,9.81,0,0,1,500.24,332Z" transform="translate(-25.34 -188.3)"/><path class="cls-35" d="M556.51,279.49a1.35,1.35,0,0,1-.78-2.46l13.53-9.47a1.35,1.35,0,0,1,1.55,2.22l-13.53,9.47A1.35,1.35,0,0,1,556.51,279.49Z" transform="translate(-25.34 -188.3)"/><path class="cls-36" d="M312.74,227.61A109.24,109.24,0,0,0,211.53,296a0,0,0,0,0,0,0,32.55,32.55,0,0,1,1.32,3.88,0,0,0,0,0,.06,0,106.37,106.37,0,0,1,206.19,36.74c0,3-.12,6-0.37,8.9a1.44,1.44,0,0,0,1,1.54,1.35,1.35,0,0,0,1.66-1.2c0.26-3.05.39-6.16,0.39-9.24A109.2,109.2,0,0,0,312.74,227.61Z" transform="translate(-25.34 -188.3)"/><path class="cls-37" d="M203.76,332.34c-0.06,1.44-.09,2.89-0.09,4.34A108.13,108.13,0,0,0,213.94,383a1.35,1.35,0,1,0,2.45-1.15,105.45,105.45,0,0,1-10-45.12c0-2.5.09-5,.26-7.43A33,33,0,0,1,203.76,332.34Z" transform="translate(-25.34 -188.3)"/></g><path class="cls-38" d="M331.81,337.06a19.72,19.72,0,1,1-19.72-19.72A19.89,19.89,0,0,1,331.81,337.06Zm19.14-7.51a4.68,4.68,0,0,1-4.63-2.69L344,321.08a6.27,6.27,0,0,1,.77-5.77l3.09-3.08a3.28,3.28,0,0,0,0-5l-5-5a3.3,3.3,0,0,0-5,0l-3.09,3.08a4.68,4.68,0,0,1-5.79.77l-5.79-2.31c-2.31-.77-3.09-3.08-3.09-5v-4.23a3.45,3.45,0,0,0-3.47-3.46h-8.1a3.8,3.8,0,0,0-3.86,3.46v4.23a4.67,4.67,0,0,1-2.7,4.62l-5.79,2.31a6.3,6.3,0,0,1-5.79-.77l-3.09-3.08a3.3,3.3,0,0,0-5,0l-5,5a3.28,3.28,0,0,0,0,5l3.09,3.08a4.66,4.66,0,0,1,.77,5.77l-2.31,5.77c-0.77,2.31-3.09,3.08-5,3.08h-4.24a3.45,3.45,0,0,0-3.47,3.46v8.47a3.45,3.45,0,0,0,3.47,3.46h4.24a4.68,4.68,0,0,1,4.63,2.69l2.31,5.77a6.27,6.27,0,0,1-.77,5.77l-3.09,3.08a3.28,3.28,0,0,0,0,5l5,5a3.3,3.3,0,0,0,5,0L290,369.2a4.68,4.68,0,0,1,5.79-.77l5.79,2.31a4.67,4.67,0,0,1,2.7,4.62v4.23a3.45,3.45,0,0,0,3.47,3.46h8.49a3.45,3.45,0,0,0,3.47-3.46v-3.85a4.67,4.67,0,0,1,2.7-4.62l5.79-2.31a6.3,6.3,0,0,1,5.79.77l3.09,3.08a3.3,3.3,0,0,0,5,0l5-5a3.28,3.28,0,0,0,0-5L344,359.58a4.66,4.66,0,0,1-.77-5.77l2.31-5.77c0.39-1.92,2.7-2.69,4.63-2.69h4.24a3.45,3.45,0,0,0,3.47-3.46V333.4c0.2-2.48-.77-3.85-2.7-3.85h-4.24Z" transform="translate(-25.34 -188.3)"/></svg>